<svg width="24" height="25" viewBox="0 0 24 25" fill="none" xmlns="http://www.w3.org/2000/svg">
<path d="M6.99999 4.5C4.79085 4.5 2.99999 6.29073 2.99999 8.4997V13.7642C2.99999 15.9732 4.79085 17.7639 6.99999 17.7639L6.99999 20.3998C6.99999 20.4834 7.09638 20.5301 7.16196 20.4783L10.6 17.7639H17C19.2091 17.7639 21 15.9732 21 13.7642V8.49971C21 6.29073 19.2091 4.5 17 4.5H6.99999Z" stroke="#8693A3" stroke-width="2" stroke-linecap="round"/>
<path d="M8.99999 11.5C8.99999 12.0523 8.55227 12.5 7.99999 12.5C7.4477 12.5 6.99999 12.0523 6.99999 11.5C6.99999 10.9477 7.4477 10.5 7.99999 10.5C8.55227 10.5 8.99999 10.9477 8.99999 11.5Z" fill="#8693A3"/>
<path d="M13 11.5C13 12.0523 12.5523 12.5 12 12.5C11.4477 12.5 11 12.0523 11 11.5C11 10.9477 11.4477 10.5 12 10.5C12.5523 10.5 13 10.9477 13 11.5Z" fill="#8693A3"/>
<path d="M17 11.5C17 12.0523 16.5523 12.5 16 12.5C15.4477 12.5 15 12.0523 15 11.5C15 10.9477 15.4477 10.5 16 10.5C16.5523 10.5 17 10.9477 17 11.5Z" fill="#8693A3"/>
</svg>
