<svg width="25" height="25" viewBox="0 0 25 25" fill="none" xmlns="http://www.w3.org/2000/svg">
<path fill-rule="evenodd" clip-rule="evenodd" d="M8.33333 2.5C6.67648 2.5 5.33333 3.84315 5.33333 5.5V18.5C5.33333 20.1569 6.67648 21.5 8.33333 21.5H16.3333C17.9902 21.5 19.3333 20.1569 19.3333 18.5V5.5C19.3333 3.84315 17.9902 2.5 16.3333 2.5H8.33333ZM7.33333 5.5C7.33333 4.94772 7.78105 4.5 8.33333 4.5H16.3333C16.8856 4.5 17.3333 4.94772 17.3333 5.5V18.5C17.3333 19.0523 16.8856 19.5 16.3333 19.5H8.33333C7.78105 19.5 7.33333 19.0523 7.33333 18.5V5.5ZM10.3333 16.5C9.78105 16.5 9.33333 16.9477 9.33333 17.5C9.33333 18.0523 9.78105 18.5 10.3333 18.5H14.3333C14.8856 18.5 15.3333 18.0523 15.3333 17.5C15.3333 16.9477 14.8856 16.5 14.3333 16.5H10.3333Z" fill="#828282"/>
</svg>
